# AST/ASF file generated using VICON BodyLanguage
# -----------------------------------------------
:version 1.10
:name VICON
:units
  mass 1.0
  length 0.45
  angle deg
:documentation
   .ast/.asf automatically generated from VICON data using
   VICON BodyBuilder and BodyLanguage model FoxedUp or BRILLIANT.MOD
:root
   order TX TY TZ RX RY RZ
   axis XYZ
   position 0 0 0  
   orientation 0 0 0 
:bonedata
  begin
     id 1 
     name lhipjoint
     direction 0.653368 -0.678499 0.335782 
     length 2.51848 
     axis 0 0 0  XYZ
  end
  begin
     id 2 
     name lfemur
     direction 0.34202 -0.939693 0  
     length 6.57749  
     axis 0 0 20  XYZ
    dof rx ry rz
    limits (-160.0 20.0)
           (-70.0 70.0)
           (-60.0 70.0)
  end
  begin
     id 3 
     name ltibia
     direction 0.34202 -0.939693 0   
     length 7.94618   
     axis 0 0 20   XYZ
    dof rx
    limits (-10.0 170.0)
  end
  begin
     id 4 
     name lfoot
     direction 0.0811271 -0.222895 0.971461   
     length 2.31339   
     axis -90 7.62852e-016 20   XYZ
    dof rx rz
    limits (-45.0 90.0)
           (-70.0 20.0)
  end
  begin
     id 5 
     name ltoes
     direction 1.53568e-011 -4.21885e-011 1   
     length 1.15935   
     axis -90 7.62852e-016 20   XYZ
    dof rx
    limits (-90.0 20.0)
  end
  begin
     id 6 
     name rhipjoint
     direction -0.640058 -0.688614 0.340788   
     length 2.48149  
     axis 0 0 0  XYZ 
  end
  begin
     id 7 
     name rfemur
     direction -0.34202 -0.939693 0   
     length 6.57875   
     axis 0 0 -20   XYZ
    dof rx ry rz
    limits (-160.0 20.0)
           (-70.0 70.0)
           (-70.0 60.0)
  end
  begin
     id 8 
     name rtibia
     direction -0.34202 -0.939693 0   
     length 7.977   
     axis 0 0 -20   XYZ
    dof rx
    limits (-10.0 170.0)
 end
 begin
     id 9 
     name rfoot
     direction -0.0979793 -0.269196 0.958089   
     length 2.19857  
     axis -90 -7.62852e-016 -20   XYZ
    dof rx rz
    limits (-45.0 90.0)
           (-20.0 70.0)
  end
  begin
     id 10 
     name rtoes
     direction -1.53556e-011 -4.21868e-011 1   
     length 1.09838   
     axis -90 -7.62852e-016 -20   XYZ
    dof rx
    limits (-90.0 20.0)
  end
  begin
     id 11 
     name lowerback
     direction 0.0149039 0.998517 -0.0523597   
     length 2.10809   
     axis 0 0 0   XYZ
    dof rx ry rz
    limits (-20.0 45.0)
           (-30.0 30.0)
           (-30.0 30.0)
  end
  begin
     id 12 
     name upperback
     direction -0.00882659 0.999418 -0.0329624   
     length 2.1102   
     axis 0 0 0   XYZ
    dof rx ry rz
    limits (-20.0 45.0)
           (-30.0 30.0)
           (-30.0 30.0)
  end
  begin
     id 13 
     name thorax
     direction -0.0165585 0.999826 -0.0085833   
     length 2.11039   
     axis 0 0 0   XYZ
    dof rx ry rz
    limits (-20.0 45.0)
           (-30.0 30.0)
           (-30.0 30.0)
  end
  begin
     id 14 
     name lowerneck
     direction -0.0130877 0.999911 0.00260353   
     length 1.73253   
     axis 0 0 0   XYZ
    dof rx ry rz
    limits (-20.0 45.0)
           (-30.0 30.0)
           (-30.0 30.0)
  end
  begin
     id 15 
     name upperneck
     direction -0.0348454 0.928205 -0.370435   
     length 1.66692   
     axis 0 0 0   XYZ
    dof rx ry rz
    limits (-20.0 45.0)
           (-30.0 30.0)
           (-30.0 30.0)
  end
  begin
     id 16
     name head
     direction -0.00807754 0.992494 -0.122026  
     length 1.72765  
     axis 0 0 0   XYZ
    dof rx ry rz
    limits (-20.0 45.0)
           (-30.0 30.0)
           (-30.0 30.0)
  end
  begin
     id 17 
     name lclavicle
     direction 0.987582 0.144023 0.0627671  
     length 3.49235  
     axis 0 0 0   XYZ
    dof ry rz
    limits (-20.0 10.0)
           (0.0 20.0)
  end
  begin
     id 18 
     name lhumerus
     direction 1 -4.48958e-011 -1.45183e-018   
     length 5.41917   
     axis 180 -30 -90   XYZ
    dof rx ry rz
    limits (-60.0 90.0)
           (-90.0 90.0)
           (-90.0 90.0)
  end
  begin
     id 19
     name lradius
     direction 1 -4.48999e-011 5.75106e-027   
     length 2.44373   
     axis 180 -30 -90   XYZ
    dof rx
    limits (-10.0 170.0)
  end
  begin
     id 20
     name lwrist
     direction 1 -4.48987e-011 1.53461e-026   
     length 1.22186   
     axis -1.09697e-014 90 90   XYZ
    dof ry
    limits (-180.0 0.0)
 end
  begin
     id 21 
     name lhand
     direction 1 -4.48881e-011 3.06923e-026   
     length 0.727502   
     axis -1.95843e-014 90 90   XYZ
    dof rx rz
    limits (-90.0 90.0)
           (-45.0 45.0)
  end
  begin
     id 22 
     name lfingers
     direction 1 -4.48907e-011 6.13845e-026   
     length 0.586531   
     axis -3.91686e-014 90 90   XYZ
    dof rx
    limits (0.0 90.0)
  end
  begin
     id 23
     name lthumb
     direction 0.707107 -6.3487e-011 0.707107   
     length 0.842145   
     axis -90 45 2.85299e-015   XYZ
    dof rx rz
    limits (-45.0 45.0)
           (-45.0 45.0)
  end
  begin
     id 24 
     name rclavicle
     direction -0.980998 0.169556 0.0943023   
     length 3.29272  
     axis 0 0 0   XYZ 
    dof ry rz
    limits (-10.0 20.0)
           (-20.0 0.0)
  end
  begin
     id 25 
     name rhumerus
     direction -1 -1.83355e-005 2.45537e-005  
     length 5.58976   
     axis 180 30 90   XYZ
    dof rx ry rz
    limits (-90.0 60.0)
           (-90.0 90.0)
           (-90.0 90.0)
  end
  begin
     id 26 
     name rradius
     direction -1 -4.48967e-011 5.97228e-027   
     length 2.4806   
     axis 180 30 90   XYZ
    dof rx
    limits (-10.0 170.0)
  end
  begin
     id 27 
     name rwrist
     direction -1 -4.48963e-011 1.53461e-026   
     length 1.2403   
     axis -1.09697e-014 -90 -90   XYZ
    dof ry
    limits (-180.0 0.0)
  end
  begin
     id 28
     name rhand
     direction -1 -4.48881e-011 3.06923e-026   
     length 0.816009   
     axis -1.95843e-014 -90 -90   XYZ
    dof rx rz
    limits (-90.0 90.0)
           (-45.0 45.0)
  end
  begin
     id 29
     name rfingers
     direction -1 -4.49018e-011 6.13845e-026   
     length 0.657887   
     axis -3.91686e-014 -90 -90   XYZ
    dof rx
    limits (0.0 90.0)
  end
  begin
     id 30
     name rthumb
     direction -0.707107 -6.34872e-011 0.707107   
     length 0.944599   
     axis -90 -45 -2.85299e-015   XYZ
    dof rx rz
    limits (-45.0 45.0)
           (-45.0 45.0)
  end
:hierarchy
  begin
    root lhipjoint rhipjoint lowerback
    lhipjoint lfemur
    lfemur ltibia
    ltibia lfoot
    lfoot ltoes
    rhipjoint rfemur
    rfemur rtibia
    rtibia rfoot
    rfoot rtoes
    lowerback upperback
    upperback thorax
    thorax lowerneck lclavicle rclavicle
    lowerneck upperneck
    upperneck head
    lclavicle lhumerus
    lhumerus lradius
    lradius lwrist
    lwrist lhand lthumb
    lhand lfingers
    rclavicle rhumerus
    rhumerus rradius
    rradius rwrist
    rwrist rhand rthumb
    rhand rfingers
  end

#!OML:ASF F:\VICON\USERDATA\INSTALL\rory3\rory3.ASF
:FULLY-SPECIFIED
:DEGREES
69
root 1.75102 16.5784 16.1396 23.7812 0.802245 2.19421
lowerback -16.152 -0.471548 -2.17484
upperback -7.33839 -0.270472 -1.11312
thorax 1.2621 -0.10462 0.0168074
lowerneck -16.2675 -2.21889 -3.71046
upperneck 34.2023 -2.73805 1.78864
head 14.6025 -1.41147 0.917309
rclavicle 3.93842e-015 -1.96797e-014
rhumerus -71.5454 27.1109 -105.426
rradius 62.3639
rwrist -75.558
rhand 4.50703 -11.5907
rfingers 7.12502
rthumb 29.8997 -39.1961
lclavicle 3.93842e-015 -1.96797e-014
lhumerus -66.9023 -11.6362 93
lradius 51.1798
lwrist 49.3279
lhand 9.43923 33.2013
lfingers 7.12502
lthumb 34.5943 59.8511
rfemur -45.7701 3.33883 29.6437
rtibia 43.929
rfoot -47.8153 -30.774
rtoes 44.7334
lfemur -22.5762 15.9661 -29.59
ltibia 54.2448
lfoot 9.19006 30.0886
ltoes 35.6949
70
root 1.75281 16.5733 16.1136 23.7966 0.66578 2.08024
lowerback -16.2847 -0.422054 -2.15696
upperback -7.23527 -0.204383 -1.02472
thorax 1.44029 -0.0726195 0.109691
lowerneck -16.5173 -2.20587 -3.6904
upperneck 34.2393 -2.6934 1.72775
head 14.6737 -1.39642 0.894558
rclavicle 5.75233e-015 -1.98785e-016
rhumerus -71.3618 27.5298 -105.275
rradius 62.3277
rwrist -75.27
rhand 5.24039 -11.5286
rfingers 7.12502
rthumb 30.5992 -39.0057
lclavicle 5.75233e-015 -1.98785e-016
lhumerus -66.8781 -11.7821 93.0973
lradius 51.5728
lwrist 49.8054
lhand 10.6964 33.6832
lfingers 7.12502
lthumb 35.7865 60.0518
rfemur -45.9014 3.72734 29.6335
rtibia 43.9364
rfoot -47.8836 -31.0129
rtoes 44.5986
lfemur -22.4984 15.9516 -29.4803
ltibia 54.3058
lfoot 9.63166 27.9796
ltoes 32.6621
71
root 1.76215 16.5738 16.0808 23.7054 0.652662 2.08021
lowerback -16.1802 -0.352077 -2.10196
upperback -7.18316 -0.12206 -1.02912
thorax 1.43937 -0.0328011 0.0884499
lowerneck -16.4672 -2.25031 -3.72587
upperneck 34.1849 -2.73984 1.70606
head 14.6393 -1.42355 0.884048
rclavicle -3.80176e-015 -4.57205e-015
rhumerus -71.1908 27.7922 -105.06
rradius 62.2224
rwrist -75.0592
rhand 6.077 -11.7663
rfingers 7.12502
rthumb 31.3967 -39.0914
lclavicle -3.80176e-015 -4.57205e-015
lhumerus -66.8721 -12.0019 93.0833
lradius 51.9972
lwrist 49.8302
lhand 11.7584 33.7033
lfingers 7.12502
lthumb 36.7921 59.8213
rfemur -45.9499 3.66423 29.611
rtibia 43.9483
rfoot -47.8347 -31.037
rtoes 44.4305
lfemur -22.3189 15.8306 -29.4547
ltibia 54.4109
lfoot 8.65966 26.4335
ltoes 30.8392
72
root 1.7754 16.5764 16.0477 23.5563 0.791306 2.03733
lowerback -16.0445 -0.302641 -1.9172
upperback -7.07316 -0.0856826 -1.01115
thorax 1.4844 -0.0186579 0.00953604
lowerneck -16.641 -2.34453 -3.76293
upperneck 34.1307 -2.82614 1.61572
head 14.6567 -1.47605 0.836546
rclavicle 3.50979e-016 6.16232e-015
rhumerus -70.9367 28.0183 -104.781
rradius 62.1895
rwrist -74.8346
rhand 6.6155 -11.9883
rfingers 7.12502
rthumb 31.9096 -39.2123
lclavicle 3.50979e-016 6.16232e-015
lhumerus -66.7953 -12.1492 93.0411
lradius 52.4543
lwrist 49.4754
lhand 12.5117 33.1008
lfingers 7.12502
lthumb 37.5045 59.0331
rfemur -45.9434 3.29917 29.7519
rtibia 43.977
rfoot -47.5439 -31.1439
rtoes 43.942
lfemur -22.0808 15.6106 -29.3151
ltibia 54.5396
lfoot 7.26919 24.8532
ltoes 29.5438
73
root 1.7893 16.5741 16.0138 23.4522 0.960263 1.90228
lowerback -15.871 -0.279363 -1.64831
upperback -7.09894 -0.10053 -0.940373
thorax 1.36665 -0.0293254 -0.0700287
lowerneck -16.6559 -2.39659 -3.71997
upperneck 34.1242 -2.86263 1.46457
head 14.6549 -1.50701 0.760187
rclavicle 6.18096e-016 -7.7526e-015
rhumerus -71.1461 28.3262 -104.916
rradius 62.0854
rwrist -74.5658
rhand 7.22933 -11.376
rfingers 7.12502
rthumb 32.494 -38.4816
lclavicle 6.18096e-016 -7.7526e-015
lhumerus -66.8891 -12.1636 93.0331
lradius 52.7547
lwrist 48.8538
lhand 13.0147 32.2637
lfingers 7.12502
lthumb 37.9798 58.0684
rfemur -45.9719 2.8841 30.0254
rtibia 43.9915
rfoot -47.2457 -31.0545
rtoes 43.8007
lfemur -21.8653 15.3942 -29.1155
ltibia 54.6844
lfoot 5.06346 23.2617
ltoes 29.8421
74
root 1.7982 16.5703 15.9773 23.4655 0.944933 1.93895
lowerback -15.9113 -0.215537 -1.63556
upperback -7.06711 -0.0155373 -0.970085
thorax 1.42065 0.0121815 -0.0942753
lowerneck -16.7711 -2.45762 -3.75709
upperneck 34.1924 -2.96627 1.54424
head 14.7188 -1.54377 0.780591
rclavicle -2.54693e-016 9.93923e-016
rhumerus -70.6127 28.2159 -104.166
rradius 61.877
rwrist -73.0554
rhand 9.38375 -12.9357
rfingers 7.12502
rthumb 34.5416 -39.5975
lclavicle -2.54693e-016 9.93923e-016
lhumerus -66.7575 -12.3747 92.9583
lradius 53.0372
lwrist 48.0763
lhand 13.4117 32.4188
lfingers 7.12502
lthumb 38.3546 58.1206
rfemur -46.131 2.91099 29.9352
rtibia 43.9847
rfoot -47.1419 -30.9589
rtoes 44.0119
lfemur -21.877 15.2681 -29.2296
ltibia 54.8115
lfoot 3.45265 21.8239
ltoes 27.9224
75
root 1.80673 16.5716 15.9473 23.4527 0.882579 1.96093
lowerback -16.0753 -0.184727 -1.66847
upperback -6.89864 0.0361059 -0.948803
thorax 1.68446 0.0366841 -0.0449778
lowerneck -17.1798 -2.46889 -3.848
upperneck 34.2394 -2.98346 1.67515
head 14.8398 -1.54132 0.843772
rclavicle 2.67117e-016 2.68359e-015
rhumerus -70.2309 28.4575 -103.847
rradius 61.6741
rwrist -72.4958
rhand 10.6681 -13.2422
rfingers 7.12502
rthumb 35.7597 -39.6173
lclavicle 2.67117e-016 2.68359e-015
lhumerus -66.3475 -12.4876 92.7153
lradius 53.2756
lwrist 47.6037
lhand 13.8662 33.6938
lfingers 7.12502
lthumb 38.7834 59.2755
rfemur -46.1778 3.13312 29.7781
rtibia 43.944
rfoot -47.4658 -30.6718
rtoes 44.6123
lfemur -21.8747 15.2184 -29.3323
ltibia 54.8694
lfoot 2.93766 20.6843
ltoes 22.2231
